<svg width="208" height="52" viewBox="0 0 208 52" fill="none" xmlns="http://www.w3.org/2000/svg">
<g id="Logo_Linaro_Horizontal 2">
<path id="Vector" d="M143.934 37.2119C143.624 34.7337 143.335 32.2498 143.157 29.7582C143.156 29.7201 143.152 29.6821 143.148 29.644C142.99 27.6267 142.481 25.8857 141.621 24.4666C141.621 24.4666 141.619 24.4666 141.619 24.4647C139.858 21.7846 136.708 20.1503 132.779 20.1388C127.496 20.1255 123.6 23.1675 122.693 27.7544C122.683 27.8096 122.671 27.8629 122.662 27.9163C122.506 28.823 122.465 29.7982 122.558 30.8307C122.654 31.9012 122.874 32.8955 123.222 33.8079C123.232 33.8327 123.243 33.8574 123.253 33.8841C124.145 36.1794 125.849 37.9319 128.378 38.97C129.996 39.6329 131.579 39.9396 133.069 39.7586C134.847 39.5415 136.484 38.6252 137.879 36.7795C138.075 37.3357 138.225 37.8519 138.414 38.3338C138.483 38.5071 138.556 38.6748 138.637 38.8367C138.788 39.1357 139.184 39.4996 139.483 39.5091C141.172 39.5738 142.863 39.5415 144.665 39.5415C144.373 38.6329 144.028 37.9376 143.937 37.2119H143.934ZM137.289 30.3106C137.21 32.5222 136.087 33.8955 134.09 34.2784C134.088 34.2784 134.088 34.2803 134.084 34.2784C133.68 34.3737 133.241 34.4251 132.773 34.427C131.563 34.4365 130.56 34.1127 129.813 33.5051C129.807 33.4993 129.803 33.4974 129.799 33.4955C129.094 32.9507 128.632 32.166 128.443 31.1659C128.434 31.1183 128.422 31.0707 128.415 31.0231C128.351 30.6821 128.314 30.3202 128.311 29.9373C128.28 27.1391 129.93 25.4705 132.75 25.4476H133.05C134.585 25.4686 135.762 26.0552 136.48 27.0953C136.503 27.1258 136.527 27.1581 136.546 27.1905C137.029 27.8953 137.295 28.7944 137.299 29.8478C137.299 30.0059 137.293 30.1602 137.283 30.3106H137.289Z" fill="white"/>
<path id="Vector_2" d="M170.662 20.1407C176.804 20.156 181.047 24.1409 181.037 29.8878C181.026 35.6137 176.646 39.8005 170.703 39.7624C164.555 39.7243 160.351 35.6709 160.376 29.8097C160.401 24.099 164.627 20.1274 170.662 20.1427V20.1407ZM166.2 29.9335C166.233 32.7507 167.914 34.446 170.659 34.4251C173.505 34.4022 175.204 32.686 175.19 29.8478C175.177 27.1182 173.426 25.4248 170.639 25.4457C167.82 25.4686 166.167 27.1372 166.2 29.9335Z" fill="white"/>
<path id="Vector_3" d="M119.938 39.4824H114.143C114.143 36.5471 114.157 33.6727 114.134 30.7983C114.128 30.0116 114.088 29.2115 113.928 28.4439C113.479 26.2914 111.971 25.299 109.523 25.4609C107.597 25.5885 106.122 26.9524 106.026 28.9334C105.912 31.2288 105.97 33.5336 105.958 35.8346C105.952 37.0004 105.958 38.1662 105.958 39.4386H100.049C100.049 38.7986 100.044 38.149 100.049 37.4976C100.082 34.6117 100.026 31.7221 100.175 28.8439C100.421 24.0018 104.233 20.3998 109.134 20.1598C112.674 19.9864 115.755 20.8969 117.989 23.7599C119.174 25.2781 119.861 27.0667 119.913 28.9734C120.008 32.4364 119.94 35.9032 119.94 39.4824H119.938Z" fill="white"/>
<path id="Vector_4" d="M86.0865 39.4881H80.3857V12.6947H86.0865V39.4881Z" fill="white"/>
<path id="Vector_5" d="M147.284 39.4691C147.284 35.5204 146.966 31.6154 147.37 27.7829C147.813 23.5828 151.553 20.6188 156.076 20.2093C157.119 20.116 158.179 20.196 159.342 20.196V25.6228C158.25 25.7124 157.195 25.7105 156.176 25.901C154.244 26.2629 153.15 27.3372 153.04 29.2858C152.88 32.1202 152.944 34.9661 152.913 37.8081C152.907 38.3395 152.913 38.871 152.913 39.4691H147.284Z" fill="white"/>
<path id="Vector_6" d="M95.8513 39.4881H90.2295V20.4036H95.8513V39.4881Z" fill="white"/>
<path id="Vector_7" d="M89.6553 15.0605C89.6649 13.1005 90.9861 11.8376 93.0372 11.8242C95.0325 11.8109 96.3575 13.1214 96.3498 15.1044C96.3421 17.1197 95.0556 18.4226 93.0603 18.4359C91.0342 18.4492 89.6456 17.072 89.6534 15.0605H89.6553Z" fill="white"/>
<path id="Vector_8" d="M182.807 20.1636H186.493V20.7389H185.004V24.2095H184.293V20.7389H182.805V20.1636H182.807ZM191.196 24.2114L191.186 21.3732L189.648 23.7333H189.322L187.774 21.4227V24.2114H187.094V20.1655H187.675L189.499 22.9351L191.285 20.1655H191.866L191.876 24.2114H191.196Z" fill="white"/>
<path id="Vector_9" d="M37.3975 25.8876C37.4013 25.9181 37.4013 25.8457 37.3975 25.8762V25.8876Z" fill="white"/>
<path id="Vector_10" d="M72.6635 25.8248C72.8118 15.7539 62.1094 8.59556 52.9132 13.1919C50.1841 14.432 47.5186 16.8892 44.4487 16.9006C42.2397 16.9235 40.1577 15.5177 38.2511 14.3748C36.3829 13.2281 34.378 12.2947 32.196 11.9633C23.7604 10.5328 16.0625 17.5045 16.178 25.8819C16.0644 34.2822 23.7932 41.2577 32.2499 39.791C34.43 39.4519 36.4311 38.5071 38.2973 37.3604C40.202 36.2175 42.2859 34.8232 44.4949 34.8632C47.5475 34.9013 50.1937 37.3338 52.9132 38.5719C62.1422 43.1835 72.8523 35.9642 72.6616 25.8838V25.8248H72.6635ZM65.6416 26.6553C65.3989 29.7163 63.1475 32.7298 59.937 32.9965C54.5926 33.326 51.0777 27.741 45.9182 27.0667C40.4389 26.04 36.5736 30.8592 32.0246 32.5793C28.633 33.8994 25.0489 32.1698 23.7854 28.8154C22.3564 25.379 23.7084 20.7217 27.2945 19.2188C35.1985 16.2968 39.3103 29.0611 49.7026 23.3447C52.8265 21.6779 55.5228 18.954 59.0896 18.7636C63.2631 18.5178 66.0942 22.7542 65.6474 26.6L65.6416 26.6553Z" fill="url(#paint0_linear_231_1271)"/>
</g>
<defs>
<linearGradient id="paint0_linear_231_1271" x1="16.0003" y1="11.5" x2="71.5003" y2="36" gradientUnits="userSpaceOnUse">
<stop stop-color="#FFCE00"/>
<stop offset="1" stop-color="#6715E8"/>
</linearGradient>
</defs>
</svg>
